<?xml version="1.0" encoding="iso-8859-1"?>
<!-- Generator: Adobe Illustrator 19.0.0, SVG Export Plug-In . SVG Version: 6.00 Build 0)  -->
<svg version="1.1" id="Layer_1" xmlns="http://www.w3.org/2000/svg" xmlns:xlink="http://www.w3.org/1999/xlink" x="0px" y="0px"
	 viewBox="0 0 460 460" style="enable-background:new 0 0 460 460;" xml:space="preserve">
<g id="XMLID_835_">
	<polygon id="XMLID_836_" style="fill:#DAE0E7;" points="135,49.5 145,139.5 135,239.5 0,229.5 0,49.5 	"/>
	<polygon id="XMLID_837_" style="fill:#BEC8D6;" points="270,49.5 270,79.5 280,239.5 135,239.5 135,49.5 	"/>
	<polygon id="XMLID_838_" style="fill:#6B81A1;" points="0,229.5 0,319.5 280,329.5 280,229.5 	"/>
	<polygon id="XMLID_839_" style="fill:#FFB739;" points="300.001,110.495 300.001,210.5 430,200.5 400.907,120.495 	"/>
	<polygon id="XMLID_840_" style="fill:#466289;" points="310,200.5 310,120.5 400.909,120.5 386,79.5 270,79.5 270,319.5 0,319.5 
		0,349.5 460,349.5 460,200.5 	"/>
	<path id="XMLID_841_" style="fill:#233145;" d="M380,350.5l-10-60c-33.137,0-60,26.863-60,60c0,33.136,26.863,60,60,60L380,350.5z"
		/>
	<path id="XMLID_842_" style="fill:#121923;" d="M370,290.5v120c33.137,0,60-26.863,60-60S403.137,290.5,370,290.5z"/>
	<circle id="XMLID_843_" style="fill:#6B81A1;" cx="370" cy="350.5" r="20"/>
	<path id="XMLID_844_" style="fill:#354A67;" d="M89.999,290.5c-33.136,0-60,26.864-59.999,60c0,33.136,26.863,60,60,60l10-60
		L89.999,290.5z"/>
	<path id="XMLID_845_" style="fill:#233145;" d="M90,290.5v120c33.137,0,60-26.863,60-60C149.999,317.363,123.136,290.5,90,290.5z"
		/>
	<circle id="XMLID_846_" style="fill:#8799B3;" cx="90" cy="350.5" r="20"/>
</g>
<g>
</g>
<g>
</g>
<g>
</g>
<g>
</g>
<g>
</g>
<g>
</g>
<g>
</g>
<g>
</g>
<g>
</g>
<g>
</g>
<g>
</g>
<g>
</g>
<g>
</g>
<g>
</g>
<g>
</g>
</svg>
